<svg width="720" height="465" viewBox="0 0 720 465" fill="none" xmlns="http://www.w3.org/2000/svg">
<g clip-path="url(#clip0_57_42)">
<path d="M438.597 37.0117C427.703 37.0117 418.936 42.0733 401.403 52.1964L36.8018 262.699C36.4497 262.902 36.1011 263.103 35.7561 263.303L31.4213 250.298L13.168 244.393L10.4837 248.687V283.583L10.5299 283.553C10.5107 283.759 10.5011 283.965 10.5011 284.173C10.5012 290.463 19.268 295.524 36.8018 305.648L286.508 449.815C304.042 459.939 312.809 465 323.703 465C334.597 465 343.364 459.939 360.898 449.815L725.498 239.313C742.807 229.32 751.572 224.259 751.795 218.081L751.888 218.086V182.654L737.393 186.949L720.355 193.395L475.792 52.1964C458.258 42.0733 449.492 37.0117 438.597 37.0117Z" fill="#E44449"/>
<rect width="374.233" height="506.902" rx="21.4744" transform="matrix(0.866025 0.5 -0.866026 0.5 438.597 -5)" fill="#F15156"/>
<g clip-path="url(#clip1_57_42)">
<path d="M259.127 286.621C246.27 280.192 232.068 269.311 233.834 268.001C235.508 266.766 254.441 268.974 262.766 270.018C259.817 272.685 259.049 276.004 258.598 279.079C258.277 281.627 258.408 284.16 259.122 286.618L259.127 286.621Z" fill="#FA9700"/>
<path d="M258.603 279.082C259.054 276.007 259.817 272.685 262.771 270.02C265.15 270.319 266.67 270.52 266.67 270.52L267.074 290.018C264.605 289.189 261.898 288.007 259.132 286.624C258.423 284.163 258.286 281.633 258.608 279.084L258.603 279.082Z" fill="#F27006"/>
<path d="M303.233 261.157C305.628 262.753 307.675 264.317 309.112 265.742L275.34 265.509C275.34 265.509 274.992 264.631 274.474 263.258C279.094 261.555 284.839 261.115 290.169 260.851C294.583 260.666 298.97 260.742 303.228 261.154L303.233 261.157Z" fill="#F27006"/>
<path d="M270.981 246.553C273.251 245.534 292.093 253.731 303.233 261.157C298.975 260.744 294.588 260.668 290.174 260.854C284.844 261.117 279.089 261.558 274.479 263.26C272.677 258.451 268.842 247.52 270.986 246.556L270.981 246.553Z" fill="#FA9700"/>
<path d="M352.646 306.182C348.311 313.222 336.786 317.331 325.272 320.388L302.044 305.261L332.423 285.102C337.214 285.914 342.044 286.801 346.879 287.749C352.891 293.284 356.516 299.746 352.641 306.185L352.646 306.182Z" fill="#F27006"/>
<path d="M352.646 306.182C356.516 299.746 352.891 293.283 346.884 287.746C404.133 298.949 462.262 318.378 462.262 318.378L388.011 361.246L325.277 320.391C336.791 317.333 348.311 313.228 352.651 306.185L352.646 306.182Z" fill="#FA9700"/>
<path d="M233.709 268.484C242.395 268.383 250.274 272.435 255.498 276.445C259.927 279.939 261.511 283.807 261.586 287.81C249.154 282.094 234.336 271.175 233.704 268.487L233.709 268.484Z" fill="#FEB8AC"/>
<path d="M271.818 246.481C271.644 251.496 278.657 256.048 285.608 259.061C291.658 261.618 298.358 262.533 305.292 262.576C295.392 255.399 276.48 246.843 271.823 246.479L271.818 246.481Z" fill="#FEB8AC"/>
<path d="M344.486 310.436C362.968 299.766 334.678 279.439 320.791 269.826C306.899 260.216 282.717 259.161 269.196 266.967C255.676 274.773 257.502 288.735 274.148 296.756C290.793 304.776 326.005 321.106 344.486 310.436Z" fill="#FFF3DB"/>
<path d="M272.382 265.379C286.256 259.372 307.926 260.93 320.781 269.826C327.718 274.622 338.241 282.097 344.738 289.703C328.375 284.048 311.138 286.472 302.684 282.717C294.407 279.043 278.967 269.51 272.377 265.376L272.382 265.379Z" fill="#FA9700"/>
<path d="M266.44 268.809C273.596 272.617 290.112 281.529 296.476 286.307C302.979 291.188 298.781 301.14 308.576 310.587C295.401 306.836 282.46 300.757 274.148 296.756C258.734 289.331 256.041 276.822 266.445 268.812L266.44 268.809Z" fill="#FA9700"/>
<path d="M294.176 293.308C291.689 294.745 287.062 294.316 283.632 292.336C283.192 292.082 283.197 291.668 283.642 291.411C284.088 291.154 284.804 291.151 285.244 291.405C287.695 292.821 291.058 293.271 292.59 292.386C294.122 291.502 293.337 289.564 290.885 288.148C290.445 287.894 290.45 287.481 290.895 287.223C291.341 286.966 292.057 286.963 292.497 287.217C295.927 289.198 296.664 291.872 294.181 293.305L294.176 293.308Z" fill="#593A42"/>
<path d="M316.782 280.257C314.3 281.69 309.668 281.265 306.238 279.284C305.798 279.03 305.803 278.617 306.248 278.359C306.694 278.102 307.41 278.1 307.85 278.354C310.302 279.769 313.664 280.219 315.196 279.335C316.728 278.45 315.943 276.512 313.491 275.096C313.051 274.842 313.056 274.429 313.501 274.172C313.947 273.914 314.663 273.912 315.103 274.166C318.534 276.146 319.27 278.82 316.787 280.254L316.782 280.257Z" fill="#593A42"/>
<path d="M342.114 299.072C345.87 301.241 345.036 305.239 340.26 307.996C335.485 310.753 328.556 311.238 324.799 309.069C321.042 306.9 321.872 302.905 326.657 300.143C331.443 297.38 338.357 296.904 342.114 299.072Z" fill="#593A42"/>
<path d="M324.86 302.538C323.493 303.864 323.396 305.467 324.47 306.85C325.22 307.821 327.717 306.985 326.971 306.023C326.304 305.169 326.524 304.146 327.349 303.345C328.294 302.422 325.816 301.616 324.865 302.535L324.86 302.538Z" fill="#936170"/>
<path d="M326.276 307.246C325.642 307.458 325.288 308.005 325.722 308.376C325.939 308.559 326.131 308.745 326.347 308.928C326.786 309.297 327.57 309.472 328.299 309.234C328.928 309.025 329.292 308.473 328.848 308.107C328.632 307.924 328.435 307.735 328.223 307.555C327.784 307.186 327 307.011 326.271 307.249L326.276 307.246Z" fill="#936170"/>
<path d="M369.979 338.131C362.499 331.731 333.779 304.763 367.928 307.849C383.015 309.173 397.273 313.937 409.74 318.365C420.443 322.123 430.742 326.405 440.767 330.788L395.395 356.983C386.478 350.893 377.781 344.705 369.979 338.131Z" fill="#FFF3DB"/>
<path d="M531.59 140.136C532.088 140.094 538.998 142.28 543.221 143.637L537.978 149.593L533.302 146.893C533.302 146.893 530.873 140.196 531.59 140.136Z" fill="#FEB8AC"/>
<path d="M520.812 151.502C519.809 149.969 522.206 138.163 526.524 136.372C530.841 134.582 545.76 140.762 545.76 140.762L543.232 143.637C539.004 142.277 532.099 140.094 531.601 140.136C530.884 140.196 533.313 146.893 533.313 146.893C533.313 146.893 534.506 155.125 533.886 155.836C533.267 156.548 521.825 153.034 520.822 151.502L520.812 151.502Z" fill="#352328"/>
<path d="M544.071 121.544C543.153 121.372 535.436 124.298 535.436 124.298C535.436 124.298 531.838 125.787 531.124 125.612C530.409 125.436 530.985 121.017 533.742 119.477C542.507 117.658 566.275 120.693 588.461 140.988L583.138 140.62C562.686 124.124 544.076 121.541 544.076 121.541L544.071 121.544Z" fill="#352328"/>
<path d="M535.441 124.295C535.441 124.295 543.153 121.366 544.076 121.541C544.076 121.541 562.686 124.124 583.138 140.62L551.253 138.407L535.441 124.295Z" fill="#FEB8AC"/>
<path d="M528.173 175.698C522.981 171.008 537.974 158.676 537.974 158.676C528.854 140.209 552.826 132.385 576.964 136.165C601.101 139.945 688.847 187.559 688.847 187.559L635.025 218.633L571.68 169.46C545.845 183.908 533.364 180.389 528.173 175.698Z" fill="#593A42"/>
<path d="M665.11 201.263L635.025 218.633L571.681 169.46C571.681 169.46 575.985 167.506 580.765 164.318C580.765 164.318 643.396 191.871 665.11 201.263Z" fill="#352328"/>
<path d="M552.113 151.146C556.759 153.829 563.569 154.246 567.319 152.082C571.068 149.917 570.345 145.985 565.699 143.303C561.052 140.62 554.242 140.203 550.493 142.367C546.744 144.532 547.467 148.464 552.113 151.146Z" fill="#352328"/>
<path d="M556.128 148.828C557.586 149.67 559.578 149.889 560.575 149.314C561.571 148.739 561.195 147.592 559.732 146.747C558.269 145.902 556.282 145.686 555.286 146.261C554.29 146.836 554.665 147.983 556.128 148.828Z" fill="#191113"/>
<path d="M544.11 155.213C545.568 156.055 547.556 156.272 548.552 155.696C549.548 155.121 549.173 153.974 547.714 153.132C546.256 152.29 544.264 152.071 543.268 152.646C542.272 153.221 542.647 154.368 544.11 155.213Z" fill="#191113"/>
<path d="M526.447 175.679C529.393 177.38 534.829 177.004 538.578 174.839C542.328 172.674 542.979 169.536 540.033 167.835C537.087 166.134 531.651 166.51 527.902 168.675C524.152 170.839 523.496 173.975 526.447 175.679Z" fill="#191113"/>
<path d="M530.843 168.044C532.646 167.426 534.825 167.377 536.71 167.864C538.029 168.204 536.893 169.334 535.588 168.997C534.427 168.697 533.034 168.794 531.95 169.168C530.702 169.598 529.595 168.473 530.853 168.044L530.843 168.044Z" fill="#593A42"/>
<path d="M537.243 168.687C537.53 168.401 538.278 168.238 538.778 168.44C539.026 168.536 539.283 168.627 539.531 168.724C540.031 168.926 540.271 169.279 539.939 169.607C539.653 169.893 538.905 170.056 538.405 169.854C538.162 169.754 537.899 169.666 537.652 169.57C537.151 169.368 536.912 169.015 537.238 168.684L537.243 168.687Z" fill="#593A42"/>
<path d="M564.429 163.03C564.429 163.03 577.505 160.344 580.528 164.586C583.55 168.828 561.89 169.096 561.89 169.096C561.89 169.096 564.356 166.931 564.434 163.033L564.429 163.03Z" fill="#FEB8AC"/>
<path d="M574.324 166.027C570.892 165.977 567.298 166.237 563.999 166.835C563.306 166.961 563.029 166.333 563.722 166.207C567.091 165.597 570.82 165.328 574.331 165.378C575.052 165.39 575.05 166.036 574.324 166.027Z" fill="#FC8686"/>
<path d="M563.072 159.288C565.391 161.881 565.476 164.606 563.824 167.363C561.575 171.122 556.811 173.262 550.926 175.073C550.288 175.27 549.732 174.706 550.376 174.512C555.616 172.902 559.734 171.129 562.236 167.932C564.365 165.213 564.447 162.249 562.088 159.616C561.759 159.247 562.738 158.921 563.067 159.291L563.072 159.288Z" fill="#352328"/>
<path d="M480.187 203.009C480.271 204.49 480.439 205.946 480.811 207.369C467.622 198.112 463.664 189.764 465.546 188.671C467.894 187.316 478.857 190.981 485.317 193.341C481.455 196.255 480.032 199.075 480.192 203.006L480.187 203.009Z" fill="#FA9700"/>
<path d="M480.187 203.009C480.026 199.078 481.455 196.261 485.312 193.344C488.141 194.376 490.112 195.161 490.112 195.161L485.265 210.305C483.675 209.323 482.193 208.34 480.806 207.372C480.438 205.946 480.265 204.493 480.182 203.012L480.187 203.009Z" fill="#FF740C"/>
<path d="M528.915 181.063C530.142 181.667 531.379 182.3 532.615 182.968L506.385 185.766C506.385 185.766 505.153 184.736 503.498 183.232C507.356 182.049 512.168 181.474 516.023 181.018C520.245 180.589 524.682 180.619 528.915 181.068L528.915 181.063Z" fill="#FF740C"/>
<path d="M495.15 171.58C497.087 170.461 512.345 172.918 528.92 181.066C524.687 180.616 520.25 180.586 516.027 181.015C512.177 181.474 507.361 182.046 503.503 183.229C499.43 179.536 492.752 172.964 495.155 171.577L495.15 171.58Z" fill="#FA9700"/>
<path d="M469.49 190.955C470.097 190.45 486.878 196.115 487.085 197.212C487.292 198.308 485.608 206.26 484.293 205.964C482.973 205.664 468.29 191.95 469.495 190.952L469.49 190.955Z" fill="#FEB8AC"/>
<path d="M499.099 173.86C498.225 174.211 508.037 183.899 509.936 184.018C511.835 184.138 525.609 183.165 525.095 182.406C524.576 181.644 500.823 173.167 499.094 173.863L499.099 173.86Z" fill="#FEB8AC"/>
<path d="M570.11 256.111C570.11 256.111 509.293 232.778 491.783 217.837C474.274 202.896 488.43 192.04 494.707 188.416C500.984 184.792 519.786 176.619 545.66 186.731C571.54 196.84 611.953 231.953 611.953 231.953L570.105 256.114L570.11 256.111Z" fill="#FFF3DB"/>
<path d="M495.677 187.879C502.767 184.065 520.994 177.097 545.66 186.731C571.539 196.841 611.953 231.953 611.953 231.953L610.712 232.67C587.184 207.682 543.536 184.424 495.677 187.879Z" fill="#FFF9EE"/>
<path d="M517.828 199.216C508.639 197.084 499.172 189.474 497.31 190.549C495.448 191.624 508.634 197.087 512.322 202.395C515.182 206.497 495.936 211.107 487.062 212.989C477.359 200.567 489.126 191.638 494.702 188.419C500.279 185.199 515.448 178.524 536.664 183.849C533.793 188.503 525.315 200.955 517.828 199.216Z" fill="#FA9700"/>
<path d="M508.019 228.303C515.553 230.734 523.831 232.484 532.476 233.782C549.803 236.398 567.534 237.862 583.115 243.158C584.741 243.698 586.862 244.379 589.037 245.184L570.11 256.111C570.11 256.111 532.608 241.719 508.019 228.303Z" fill="#FA9700"/>
<path d="M573.278 210.225C571.03 205.234 567.993 200.452 563.788 196.105C587.021 210.299 611.953 231.953 611.953 231.953L593.026 242.88C591.637 241.622 590.452 240.4 589.517 239.461C580.344 230.472 577.805 220.231 573.278 210.225Z" fill="#FA9700"/>
<path d="M495.673 187.876C501.872 184.542 516.584 178.805 536.664 183.849C535.717 185.389 534.149 187.778 532.212 190.227C520.514 187.9 508.238 186.968 495.668 187.879L495.673 187.876Z" fill="#FF9E10"/>
<path d="M611.953 231.953L610.712 232.67C600.317 221.634 586.004 210.937 569.137 202.731C567.6 200.439 565.839 198.22 563.793 196.108C587.026 210.302 611.958 231.956 611.958 231.956L611.953 231.953Z" fill="#FF9E10"/>
<path d="M516.285 195.13C516.591 194.953 516.594 194.672 516.292 194.498C514.612 193.527 514.079 192.197 515.125 191.593C516.172 190.989 518.476 191.296 520.157 192.267C520.458 192.441 520.946 192.439 521.251 192.263C521.556 192.086 521.56 191.805 521.258 191.631C518.91 190.275 515.74 189.982 514.038 190.965C512.336 191.948 512.843 193.778 515.191 195.134C515.493 195.308 515.98 195.306 516.285 195.13Z" fill="#593A42"/>
<path d="M501.463 203.687C501.769 203.511 501.772 203.229 501.47 203.055C499.79 202.085 499.257 200.754 500.303 200.15C501.35 199.546 503.654 199.854 505.335 200.824C505.636 200.998 506.124 200.996 506.429 200.82C506.734 200.644 506.738 200.362 506.436 200.188C504.088 198.833 500.918 198.54 499.216 199.522C497.514 200.505 498.021 202.335 500.369 203.691C500.671 203.865 501.158 203.863 501.463 203.687Z" fill="#593A42"/>
<path d="M532.17 198.572C533.988 202.437 532 205.959 526.847 208.66C521.824 211.297 513.706 212.252 508.092 209.785C507.528 209.535 508.081 208.97 508.655 209.22C514.304 211.701 521.764 210.459 526.666 207.885C531.264 205.471 532.674 202.111 531.084 198.737C530.895 198.333 531.986 198.165 532.175 198.569L532.17 198.572Z" fill="#593A42"/>
<path d="M527.043 208.022C524.967 206.835 523.132 205.497 520.725 204.512C520.141 204.273 520.699 203.706 521.288 203.947C523.784 204.966 525.684 206.329 527.844 207.559C528.354 207.853 527.558 208.313 527.043 208.022Z" fill="#593A42"/>
<path d="M510.902 206.177C513.848 207.878 519.284 207.502 523.033 205.337C526.783 203.172 527.439 200.037 524.488 198.333C521.537 196.629 516.106 197.008 512.357 199.173C508.607 201.338 507.951 204.473 510.902 206.177Z" fill="#593A42"/>
<path d="M515.609 198.357C517.411 197.739 519.59 197.69 521.475 198.178C522.795 198.517 521.658 199.647 520.354 199.31C519.193 199.01 517.799 199.107 516.716 199.481C515.462 199.914 514.36 198.786 515.619 198.357L515.609 198.357Z" fill="#936170"/>
<path d="M522.014 198.997C522.3 198.711 523.048 198.548 523.548 198.75C523.796 198.847 524.059 198.935 524.301 199.034C524.801 199.236 525.041 199.589 524.714 199.92C524.433 200.208 523.68 200.369 523.18 200.167C522.937 200.067 522.679 199.982 522.427 199.883C521.927 199.686 521.687 199.328 522.019 199L522.014 198.997Z" fill="#936170"/>
<path d="M399.835 188.472C403.397 187.06 388.929 175.574 394.18 170.253C399.431 164.933 409.145 156.334 400.388 156.595C391.635 156.854 371.536 166.341 373.564 172.795C375.603 179.25 391.482 191.787 399.84 188.474L399.835 188.472Z" fill="#352328"/>
<path d="M373.553 172.79C371.52 166.339 391.63 156.852 400.377 156.59C402.517 156.525 403.546 156.998 403.816 157.812C402.44 158.55 401.148 159.347 399.944 160.236C391.494 166.073 384.45 177.52 386.717 185.771C380.464 182.207 374.722 176.499 373.553 172.79Z" fill="#593A42"/>
<path d="M415.872 215.627C422.934 215.271 431.221 213.026 431.221 213.026C449.002 224.032 476.036 234.16 501.092 242.136C440.98 238.019 415.877 215.63 415.877 215.63L415.872 215.627Z" fill="#EFDCBD"/>
<path d="M382.672 217.29C370.393 206.657 360.609 194.801 383.67 185.642C406.731 176.483 424.365 188.623 423.79 188.956C423.214 189.288 465.729 190.124 461.297 200.12C456.865 210.115 431.216 213.023 431.216 213.023C431.216 213.023 422.93 215.268 415.868 215.624C415.868 215.624 440.971 238.013 501.083 242.13C534.378 252.723 564.189 259.518 564.189 259.518L496.571 298.557C450.125 273.736 395.331 228.251 382.672 217.284L382.672 217.29Z" fill="#FFF3DB"/>
<path d="M408.613 210.395C408.613 210.395 397.262 214.038 400.432 217.909C403.608 221.783 417.426 213.143 417.426 213.143C417.426 213.143 413.302 212.796 408.613 210.395Z" fill="#FEB8AC"/>
<path d="M457.874 191.097C461.067 192.941 460.358 196.335 456.294 198.682C452.229 201.029 446.35 201.438 443.157 199.594C439.964 197.751 440.673 194.356 444.737 192.01C448.802 189.663 454.686 189.257 457.874 191.097Z" fill="#593A42"/>
<path d="M412.064 199.55C414.177 198.33 413.545 196.058 410.634 194.377C410.263 194.163 409.651 194.163 409.271 194.382C408.89 194.602 408.886 194.952 409.262 195.169C411.348 196.373 412.011 198.022 410.71 198.774C409.408 199.525 406.553 199.142 404.467 197.938C404.096 197.724 403.484 197.723 403.104 197.943C402.723 198.162 402.719 198.513 403.095 198.73C406.006 200.411 409.942 200.775 412.054 199.556L412.064 199.55Z" fill="#593A42"/>
<path d="M424.499 192.371C426.611 191.151 425.98 188.879 423.068 187.198C422.698 186.984 422.086 186.983 421.705 187.203C421.325 187.423 421.321 187.773 421.697 187.99C423.783 189.194 424.446 190.843 423.145 191.595C421.843 192.346 418.987 191.963 416.901 190.759C416.531 190.545 415.919 190.544 415.538 190.764C415.158 190.983 415.154 191.334 415.53 191.55C418.441 193.231 422.377 193.596 424.489 192.376L424.499 192.371Z" fill="#593A42"/>
<path d="M405.261 215.869C407.416 214.402 410.036 213.095 412.868 212.071C413.447 211.862 413.959 212.388 413.379 212.597C410.623 213.589 408.102 214.862 405.997 216.294C405.556 216.595 404.825 216.167 405.261 215.869Z" fill="#FC8686"/>
<path d="M443.213 194.043C442.052 195.17 441.967 196.531 442.874 197.708C443.517 198.53 445.634 197.822 445.001 197.006C444.432 196.278 444.621 195.41 445.324 194.73C446.129 193.946 444.017 193.259 443.213 194.043Z" fill="#936170"/>
<path d="M444.418 198.044C443.878 198.225 443.575 198.691 443.95 199.005C444.137 199.16 444.299 199.323 444.482 199.474C444.851 199.786 445.521 199.936 446.14 199.733C446.674 199.555 446.983 199.086 446.608 198.772C446.421 198.617 446.259 198.454 446.076 198.303C445.707 197.991 445.037 197.841 444.423 198.042L444.418 198.044Z" fill="#936170"/>
<path d="M381.293 199.656C383.282 197.446 362.112 190.183 362.388 184.094C362.653 178.005 363.06 169.026 355.52 171.655C347.98 174.285 337.991 188.094 345.108 193.175C352.225 198.255 376.625 204.845 381.298 199.659L381.293 199.656Z" fill="#352328"/>
<path d="M481.726 251.56C471.79 247.228 471.925 239.838 477.048 233.952C485.025 236.87 493.157 239.611 501.088 242.138C508.365 244.455 515.485 246.589 522.154 248.514C512.971 254.496 491.957 256.143 481.725 251.565L481.726 251.56Z" fill="#593A42"/>
<path d="M401.908 224.973C407.019 229.722 410.529 234.476 408.663 238.63C396.383 228.928 387.034 221.067 382.678 217.292C380.485 215.39 378.367 213.451 376.509 211.494C388.959 212.85 394.004 217.311 401.908 224.973Z" fill="#593A42"/>
<path d="M525.254 282.009L496.581 298.563C486.557 293.203 476.136 286.88 465.839 280.149C469.946 278.405 474.892 276.908 480.215 275.536C498.001 271.083 515.712 273.129 525.264 282.009L525.254 282.009Z" fill="#593A42"/>
<path d="M406.005 207.334C408.026 210.397 412.345 212.041 417.674 212.863C422.302 213.576 426.747 212.773 431.1 211.829C431.733 211.692 431.991 212.28 431.362 212.414C426.332 213.509 421.759 214.123 416.5 213.312C411.142 212.485 406.975 210.496 404.994 207.496C404.754 207.132 405.775 206.976 406.01 207.337L406.005 207.334Z" fill="#593A42"/>
<path d="M477.048 233.953L477.058 233.958C478.965 234.655 480.873 235.34 482.79 236.014C483.147 236.139 483.504 236.264 483.861 236.389C485.357 236.912 486.854 237.429 488.345 237.938C488.89 238.125 489.436 238.307 489.976 238.492C491.334 238.952 492.697 239.404 494.055 239.852C494.58 240.029 495.11 240.202 495.636 240.372C497.46 240.969 499.279 241.562 501.083 242.136C491.167 241.457 482.207 240.278 474.145 238.785C474.715 237.126 475.703 235.488 477.038 233.953L477.048 233.953Z" fill="#352328"/>
<path d="M345.103 193.171C337.986 188.091 347.981 174.285 355.515 171.652C357.682 170.898 359.187 171.102 360.233 171.919C357.977 176.692 356.665 181.633 357.581 186.504C359.214 194.562 368.546 198.175 379.86 200.644C372.936 203.825 351.667 197.857 345.103 193.171Z" fill="#593A42"/>
<path d="M510.817 290.344C510.817 290.344 460.214 257.261 418.788 251.494C377.362 245.732 368.222 261.882 371.69 272.219C371.69 272.219 367.994 282.287 357.69 287.944C357.69 287.944 380.654 295.844 392.616 279.538C392.616 279.538 411.151 270.303 434.865 280.122C458.574 289.943 460.304 319.508 460.304 319.508L510.817 290.344Z" fill="#FF740C"/>
<path d="M371.496 272.708C387.503 270.829 392.616 279.538 392.616 279.538C380.659 295.847 357.69 287.945 357.69 287.945C366.653 283.027 370.613 274.776 371.491 272.705L371.496 272.708Z" fill="#FFF3DB"/>
<path d="M452.076 277.331C478.438 282.447 493.809 290.084 501.962 295.457L460.299 319.511C460.299 319.511 458.574 289.943 434.86 280.125C411.151 270.303 392.611 279.541 392.611 279.541C392.611 279.541 407.577 268.697 452.071 277.334L452.076 277.331Z" fill="#ED4714"/>
<path d="M355.391 290.362C359.618 290.439 363.149 289.125 363.277 287.424C363.405 285.729 360.078 284.294 355.851 284.218C351.624 284.141 348.097 285.458 347.969 287.153C347.841 288.848 351.168 290.283 355.396 290.359L355.391 290.362Z" fill="#593A42"/>
<path d="M382.559 257.685C381.719 256.703 384.754 250.705 387.779 250.203C390.804 249.7 412.727 258.549 413.901 262.169C415.065 265.789 391.227 259.604 389.06 259.474C386.888 259.341 392.414 262.109 390.714 262.394C389.02 262.682 384.464 259.907 382.559 257.685Z" fill="#593A42"/>
<path d="M378.481 269.885C379.88 270.693 381.737 270.933 382.628 270.419C383.519 269.904 383.103 268.832 381.704 268.024C380.306 267.217 378.448 266.976 377.557 267.491C376.666 268.005 377.077 269.075 378.481 269.885Z" fill="#593A42"/>
<path d="M380.86 276.08C385.202 277.038 389.317 279.616 385.965 282.282C385.408 282.723 384.125 282.311 384.687 281.867C387.421 279.689 384.001 277.685 380.478 276.905C379.605 276.713 379.982 275.885 380.86 276.08Z" fill="#593A42"/>
<path d="M351.524 285.066C352.247 284.946 352.949 284.866 353.705 284.869C355.615 284.873 355.452 286.577 353.552 286.572C353.059 286.571 352.596 286.656 352.127 286.733C350.294 287.038 349.7 285.372 351.529 285.069L351.524 285.066Z" fill="#936170"/>
<path d="M356.522 284.715C357.104 284.676 357.586 284.688 358.158 284.752C358.948 284.844 359.339 285.406 359.116 285.814C358.852 286.292 358.049 286.47 357.265 286.381C357.215 286.381 357.17 286.378 357.12 286.379C356.324 286.433 355.55 286.218 355.377 285.73C355.232 285.311 355.725 284.77 356.522 284.715Z" fill="#936170"/>
<path d="M313.406 332.484C313.406 332.484 309.017 329.442 306.239 326.057C308.78 326.12 311.337 326.053 313.852 325.817L315.473 330.383L313.401 332.487L313.406 332.484Z" fill="#EFDCBD"/>
<path d="M306.244 326.054C305.409 325.041 304.724 323.998 304.347 322.994C304.212 322.633 304.141 322.263 304.115 321.884C303.239 321.488 302.429 320.951 302.252 320.368C302.102 320.004 302.275 319.596 303.026 319.596C303.608 319.597 304.028 319.885 304.358 320.134C304.364 320.119 304.374 320.108 304.369 320.094C303.553 319.229 302.259 318.355 302.2 317.35C302.21 316.917 302.606 316.625 303.37 316.777C304.299 316.955 304.903 317.639 305.376 318.08C305.326 317.589 304.946 315.046 305.534 314.495C306.072 314.008 306.59 314.388 306.844 314.777C307.119 315.184 307.173 315.638 307.163 316.089C309.781 313.693 313.54 312.054 316.307 312.756C322.002 314.194 312.519 322.094 312.519 322.094L313.842 325.811C311.327 326.047 308.765 326.111 306.229 326.052L306.244 326.054Z" fill="#FFF3DB"/>
<path d="M295.107 335.509C295.107 335.509 292.065 330.325 294.432 329.974C296.793 329.627 298.376 333.621 298.376 333.621C298.376 333.621 300.275 327.348 303.04 327.915C305.809 328.485 303.55 332.666 303.55 332.666C303.55 332.666 315.843 327.938 319.246 326.989C322.648 326.04 329.289 325.591 326.74 329.431L332.289 334.178C332.289 334.178 342.553 326.221 350.048 329.005C357.539 331.786 358.827 335.443 357.64 336.128C356.454 336.813 353.803 336.311 353.803 336.311C353.803 336.311 359.743 339.012 358.068 340.664C356.957 341.762 352.868 340.401 352.868 340.401C352.868 340.401 358.067 344.449 355.465 345.842C354.079 346.586 349.852 344.694 349.852 344.694C349.852 344.694 351.002 349.606 347.896 350.212C344.796 350.821 336.539 349.829 336.539 349.829C336.539 349.829 352.575 353.601 356.966 356.819C361.353 360.039 359.424 361.324 355.882 361.337C355.882 361.337 365.567 365.9 369.485 371.931L333.113 392.93C333.113 392.93 298.813 346.394 294.741 341.297C294.741 341.297 284.524 337.155 286.4 335.279C288.246 333.432 295.097 335.503 295.097 335.503L295.107 335.509Z" fill="#FFF3DB"/>
<path d="M358.215 372.302C354.621 369.742 342.977 364.314 352.334 361.948C348.587 360.755 339.696 358.211 346.961 356.094C343.485 355.544 330.409 353.659 330.718 350.924C330.918 348.976 336.792 349.518 341.683 350.295C338.969 350.127 336.539 349.834 336.539 349.834C336.539 349.834 352.575 353.607 356.966 356.825C361.353 360.045 359.424 361.33 355.882 361.343C355.882 361.343 365.567 365.906 369.485 371.936L351.424 382.364C350.049 381.211 349.083 379.931 348.81 378.525C348.148 375.391 352.507 372.076 358.215 372.296L358.215 372.302Z" fill="#EFDCBD"/>
<path d="M315.338 314.08C316.965 315.812 311.147 321.631 311.147 321.631L313.378 330.896C313.378 330.896 306.667 322.779 306.295 321.807C305.923 320.834 313.287 311.914 315.328 314.08L315.338 314.08Z" fill="#FEB8AC"/>
<path d="M275.472 338.94C275.917 338.717 276.568 338.775 277.1 338.834C277.085 338.825 277.08 338.811 277.065 338.797C275.457 338.464 273.474 338.307 272.283 337.579C271.799 337.254 271.764 336.886 272.517 336.708C273.424 336.487 274.67 336.766 275.529 336.915C274.931 336.57 271.747 334.818 271.564 334.187C271.416 333.622 272.251 333.705 272.886 333.898C273.56 334.097 274.119 334.413 274.627 334.753C273.882 331.976 274.876 329.325 277.781 328.794C283.757 327.701 285.554 337.183 285.554 337.183L297.242 342.227L298.067 344.581C298.067 344.581 286.563 343.575 280.344 340.967C279.829 340.751 279.354 340.5 278.905 340.229C277.785 340.264 276.558 340.174 275.756 339.809C275.231 339.593 274.897 339.227 275.462 338.94L275.472 338.94Z" fill="#FFF3DB"/>
<path d="M278.543 330.153C281.753 330.822 283.965 337.364 283.965 337.364L296.311 342.782C296.311 342.782 281.868 339.916 280.477 339.333C279.085 338.749 274.508 329.309 278.543 330.147L278.543 330.153Z" fill="#FEB8AC"/>
<path d="M317.3 337.49C317.47 337.9 317.346 338.273 316.945 338.597C315.806 339.517 313.005 339.57 308.607 338.736C308.393 338.694 308.28 338.565 308.356 338.441C308.422 338.318 308.657 338.251 308.87 338.293C313.884 339.24 315.674 338.828 316.291 338.329C316.557 338.118 316.63 337.883 316.513 337.607C316.184 336.816 314.393 335.932 313.222 335.598C313.059 335.549 312.965 335.443 313.011 335.337C313.052 335.234 313.212 335.158 313.401 335.152C314.685 335.124 316.012 335.214 317.467 335.424C317.711 335.461 317.964 335.497 318.222 335.536C319.528 335.735 321.008 335.966 322.229 335.757C322.652 335.684 322.942 335.551 323.084 335.361C323.25 335.133 323.204 334.835 322.939 334.537C322.408 333.896 321.238 333.555 320.103 333.223L319.855 333.15C319.696 333.104 319.608 333.001 319.644 332.895C319.68 332.794 319.825 332.716 320.009 332.707C320.312 332.691 320.616 332.676 320.925 332.663C322.353 332.598 323.831 332.532 325.068 332.189C325.657 332.014 325.978 331.818 326.01 331.611C326.058 331.303 325.505 330.88 324.51 330.456C324.332 330.382 324.294 330.233 324.429 330.126C324.555 330.019 324.819 329.998 325.002 330.075C325.888 330.448 326.921 331.027 326.83 331.645C326.771 332.027 326.305 332.348 325.437 332.609C324.204 332.95 322.835 333.044 321.492 333.106C322.374 333.396 323.211 333.758 323.682 334.319C324.056 334.737 324.115 335.182 323.843 335.539C323.747 335.668 323.611 335.781 323.441 335.879C323.191 336.024 322.861 336.134 322.468 336.201C321.023 336.442 319.428 336.198 318.018 335.985C317.765 335.943 317.517 335.909 317.283 335.873C316.439 335.75 315.644 335.672 314.878 335.635C315.943 336.11 317.049 336.801 317.33 337.484L317.3 337.49Z" fill="#EFDCBD"/>
<path d="M318.762 344.854C318.643 344.745 318.7 344.604 318.89 344.529C319.079 344.459 319.333 344.49 319.451 344.598C320.032 345.125 320.868 345.567 322.008 345.947C324.213 346.66 325.115 346.579 325.475 346.388C326.171 345.987 324.977 345.043 324.587 344.76C324.035 344.332 323.357 344.027 322.573 343.857C322.399 343.827 322.265 343.801 322.171 343.781C321.972 343.736 321.869 343.607 321.935 343.489C322.006 343.368 322.226 343.304 322.434 343.338C322.588 343.363 322.732 343.389 322.881 343.423C323.755 343.569 325.131 343.682 325.775 343.487C325.945 343.434 326.04 343.368 326.081 343.276C326.132 343.167 326.098 343.078 325.985 342.989C325.393 342.543 323.037 342.362 321.962 342.366C321.734 342.367 321.556 342.264 321.557 342.132C321.559 342 321.739 341.896 321.968 341.895C322.007 341.895 325.588 341.917 326.629 342.697C326.901 342.9 326.983 343.138 326.871 343.385C326.774 343.607 326.523 343.786 326.149 343.899C325.72 344.027 325.167 344.066 324.6 344.057C324.823 344.185 325.035 344.319 325.232 344.474C326.569 345.454 326.859 346.251 326.033 346.728C324.782 347.393 322.388 346.618 321.6 346.359C320.347 345.936 319.417 345.446 318.767 344.856L318.762 344.854Z" fill="#EFDCBD"/>
<path d="M332.693 365.839C332.898 365.789 333.136 365.846 333.224 365.966C333.592 366.49 335.037 367.151 336.426 367.439C337.245 367.605 337.942 367.626 338.371 367.492C338.89 367.318 339.147 367.056 339.17 366.694C339.209 365.878 337.958 364.768 336.858 364.359C336.67 364.291 336.622 364.147 336.737 364.04C336.853 363.928 337.107 363.896 337.29 363.961C339.258 364.64 341.402 365.075 341.782 364.872C341.862 364.826 341.894 364.619 341.501 364.144C340.219 362.652 337.417 361.034 334.828 360.291C334.655 360.243 334.567 360.128 334.622 360.022C334.673 359.913 334.848 359.84 335.042 359.848C336.663 359.905 339.44 359.775 339.598 358.935C339.651 358.677 339.519 358.456 339.188 358.259C338.096 357.594 335.168 357.401 333.909 357.448C333.685 357.458 333.493 357.358 333.484 357.232C333.471 357.103 333.646 356.99 333.87 356.98C335.149 356.933 338.42 357.105 339.779 357.935C340.268 358.235 340.483 358.59 340.399 358.981C340.214 359.984 338.087 360.253 336.509 360.314C338.838 361.195 341.061 362.589 342.22 363.934C342.406 364.158 342.976 364.839 342.345 365.203C342.335 365.209 342.325 365.215 342.315 365.221C341.68 365.559 340.23 365.317 338.965 364.997C339.556 365.518 339.992 366.139 339.966 366.708C339.947 367.096 339.715 367.418 339.279 367.67C339.124 367.759 338.949 367.838 338.749 367.907C338.09 368.111 337.185 368.102 336.133 367.888C334.5 367.552 332.917 366.806 332.456 366.158C332.368 366.038 332.479 365.9 332.683 365.85L332.693 365.839Z" fill="#EFDCBD"/>
<path d="M312.218 359.15C312.235 359.021 312.42 358.92 312.649 358.925C312.868 358.929 313.045 359.038 313.029 359.167C312.928 360.259 313.909 361.496 315.708 361.679C316.354 361.717 316.897 361.609 317.233 361.38C317.594 361.132 317.687 360.764 317.488 360.366C317.439 360.263 317.515 360.156 317.67 360.095C317.834 360.04 318.038 360.054 318.167 360.128C319.561 360.933 321.077 361.501 321.525 361.396C321.755 361.332 321.815 361.257 321.836 361.206C321.999 360.826 321.047 360.103 320.643 359.794L320.534 359.708C320.396 359.606 320.427 359.462 320.617 359.381C320.792 359.303 321.051 359.325 321.184 359.425L321.292 359.51C321.85 359.936 322.886 360.725 322.625 361.321C322.585 361.418 322.494 361.539 322.299 361.652C322.188 361.716 322.038 361.779 321.849 361.832C320.921 362.048 319.401 361.407 318.397 360.902C318.359 361.198 318.172 361.466 317.856 361.683C317.33 362.038 316.542 362.201 315.583 362.145C313.238 361.906 312.1 360.423 312.218 359.15Z" fill="#EFDCBD"/>
<path d="M310.552 350.541C310.466 350.705 310.32 350.846 310.125 350.959C309.929 351.072 309.68 351.159 309.386 351.214C308.937 351.302 308.455 351.272 307.974 351.122C306.849 350.778 305.879 349.826 305.636 349.298C305.578 349.172 305.704 349.042 305.923 349.007C306.142 348.972 306.365 349.043 306.418 349.172C306.598 349.553 307.419 350.42 308.366 350.707C308.649 350.795 308.902 350.814 309.142 350.767C309.481 350.697 309.686 350.584 309.777 350.406C310.072 349.836 309.178 348.794 308.591 348.374C308.453 348.277 308.479 348.136 308.659 348.044C308.834 347.96 309.088 347.979 309.231 348.079C309.823 348.507 310.974 349.721 310.552 350.535L310.552 350.541Z" fill="#EFDCBD"/>
<path d="M305.034 348.39C305.034 348.39 304.999 348.41 304.984 348.419C304.564 348.662 303.966 348.744 303.32 348.637C301.608 348.313 300.866 346.07 300.875 345.272C300.881 345.143 301.062 345.039 301.286 345.035C301.509 345.037 301.687 345.14 301.691 345.269C301.682 346.125 302.492 347.986 303.564 348.188C303.927 348.247 304.23 348.209 304.436 348.073C304.756 347.871 304.835 347.5 304.62 347.168C304.541 347.048 304.647 346.912 304.857 346.866C305.066 346.819 305.299 346.878 305.378 346.999C305.706 347.494 305.565 348.055 305.034 348.39Z" fill="#EFDCBD"/>
<path d="M351.479 366.442C351.703 366.421 351.906 366.51 351.945 366.636C352.198 367.603 354.44 370.383 356.606 370.183C356.9 370.15 357.08 370.063 357.191 369.908C357.419 369.565 357.197 368.974 356.828 368.577C356.724 368.482 356.636 368.402 356.562 368.336C356.444 368.233 356.475 368.09 356.655 368.014C356.835 367.939 357.078 367.958 357.217 368.055C357.315 368.124 357.414 368.215 357.512 368.313C357.621 368.41 357.729 368.519 357.862 368.636C358.728 369.454 360.535 371.162 361.576 371.052C362.084 370.987 362.22 370.828 362.276 370.716C362.713 369.859 360.263 367.803 359.408 367.309C359.25 367.218 359.252 367.069 359.412 366.976C359.572 366.884 359.831 366.883 359.989 366.974C360.651 367.356 363.66 369.666 363.055 370.843C362.989 370.966 362.874 371.108 362.658 371.232C362.443 371.356 362.153 371.455 361.73 371.511C360.545 371.636 359.335 370.822 358.098 369.732C358.082 369.85 358.041 369.965 357.965 370.071C357.758 370.385 357.343 370.585 356.755 370.644C353.882 370.911 351.454 367.792 351.163 366.71C351.129 366.581 351.28 366.46 351.504 366.439L351.479 366.442Z" fill="#FFF3DB"/>
<path d="M326.391 374.483L326.338 374.388C326.264 374.265 326.385 374.133 326.599 374.089C326.809 374.048 327.042 374.113 327.11 374.233L327.164 374.328C327.813 375.477 329.175 377.87 331.36 378.155C331.668 378.188 332.061 378.201 332.211 378.086C332.497 377.864 332.197 377.135 331.514 376.394C331.405 376.28 331.487 376.136 331.681 376.075C331.881 376.011 332.124 376.053 332.232 376.167C332.572 376.531 333.622 377.774 332.865 378.359C332.83 378.385 332.79 378.414 332.75 378.437C332.414 378.631 331.891 378.693 331.181 378.612C328.543 378.269 327.084 375.71 326.391 374.477L326.391 374.483Z" fill="#EFDCBD"/>
<path d="M333.973 375.299C334.167 375.233 334.416 375.266 334.529 375.378C336.345 377.137 338.203 378.285 339.055 378.164C339.473 378.105 339.777 377.645 339.889 376.895C339.911 376.768 340.106 376.667 340.334 376.678C340.558 376.685 340.726 376.8 340.7 376.929C340.587 377.662 340.313 378.151 339.858 378.414C339.678 378.518 339.473 378.585 339.234 378.62C337.411 378.874 334.844 376.606 333.825 375.619C333.712 375.507 333.773 375.363 333.968 375.297L333.973 375.299Z" fill="#EFDCBD"/>
<path d="M336.177 339.348C339.581 340.533 344.929 339.055 348.116 336.045C351.302 333.035 351.121 329.63 347.717 328.445C344.312 327.26 338.964 328.738 335.777 331.748C332.591 334.758 332.772 338.163 336.177 339.348Z" fill="#593A42"/>
<path d="M341.156 329.31C342.829 328.721 345.133 328.629 346.787 329.249C347.699 329.591 346.651 330.361 345.749 330.026C344.768 329.662 343.136 329.742 342.157 330.09C341.233 330.418 340.217 329.647 341.151 329.313L341.156 329.31Z" fill="#936170"/>
<path d="M347.99 329.782C348.566 329.929 348.986 330.189 349.186 330.536C349.528 331.126 347.952 331.494 347.61 330.897C347.547 330.786 347.508 330.728 347.324 330.68C346.332 330.425 347.003 329.524 347.99 329.782Z" fill="#936170"/>
<path d="M328.049 334.771C328.983 335.311 330.25 335.447 330.886 335.08C331.522 334.713 331.281 333.978 330.352 333.442C329.423 332.905 328.146 332.763 327.51 333.13C326.874 333.497 327.115 334.232 328.049 334.771Z" fill="#593A42"/>
<path d="M320.681 339.025C321.615 339.565 322.882 339.701 323.518 339.334C324.153 338.967 323.913 338.232 322.983 337.696C322.054 337.159 320.777 337.018 320.142 337.385C319.506 337.752 319.747 338.486 320.681 339.025Z" fill="#593A42"/>
</g>
</g>
<defs>
<clipPath id="clip0_57_42">
<rect width="720" height="465" fill="white"/>
</clipPath>
<clipPath id="clip1_57_42">
<rect width="410.76" height="208.589" rx="32.2116" transform="matrix(0.866025 -0.5 0.866025 0.5 152.48 288.641)" fill="white"/>
</clipPath>
</defs>
</svg>
