<svg width="763" height="217" viewBox="0 0 763 217" fill="none" xmlns="http://www.w3.org/2000/svg">
<g clip-path="url(#clip0_57_177)">
<path d="M438.597 -239.988C427.703 -239.988 418.936 -234.927 401.403 -224.804L36.8018 -14.3013C36.4497 -14.098 36.1011 -13.8967 35.7561 -13.6974L31.4213 -26.7019L13.168 -32.6074L10.4837 -28.3125V6.58342L10.5299 6.55325C10.5107 6.7587 10.5011 6.96526 10.5011 7.17316C10.5012 13.4629 19.268 18.5244 36.8018 28.6475L286.508 172.816C304.042 182.939 312.809 188 323.703 188C334.597 188 343.364 182.939 360.898 172.816L725.498 -37.6868C742.807 -47.6798 751.572 -52.7406 751.795 -58.9192L751.888 -58.9136V-94.3463L737.393 -90.0515L720.355 -83.6049L475.792 -224.804C458.258 -234.927 449.492 -239.988 438.597 -239.988Z" fill="#E44449"/>
<rect width="374.233" height="506.902" rx="21.4744" transform="matrix(0.866025 0.5 -0.866026 0.5 438.597 -282)" fill="#F15156"/>
<g clip-path="url(#clip1_57_177)">
<path d="M259.127 9.62127C246.27 3.19222 232.068 -7.68899 233.834 -8.99924C235.508 -10.2345 254.441 -8.02618 262.766 -6.98248C259.817 -4.3153 259.049 -0.99555 258.598 2.07894C258.277 4.62741 258.408 7.15988 259.122 9.61842L259.127 9.62127Z" fill="#FA9700"/>
<path d="M258.603 2.08163C259.054 -0.992862 259.817 -4.31546 262.771 -6.97979C265.15 -6.68119 266.67 -6.47996 266.67 -6.47996L267.074 13.0182C264.605 12.1886 261.898 11.0067 259.132 9.62396C258.423 7.16253 258.286 4.63296 258.608 2.08448L258.603 2.08163Z" fill="#F27006"/>
<path d="M352.646 29.1818C348.311 36.2221 336.786 40.3306 325.272 43.388L302.044 28.2607L332.423 8.10177C337.214 8.91425 342.044 9.80125 346.879 10.7486C352.891 16.2836 356.516 22.7463 352.641 29.1847L352.646 29.1818Z" fill="#F27006"/>
<path d="M352.646 29.1817C356.517 22.7462 352.891 16.2835 346.884 10.7455C404.133 21.9493 462.262 41.3777 462.262 41.3777L388.011 84.2461L325.277 43.3907C336.791 40.3333 348.311 36.2277 352.651 29.1845L352.646 29.1817Z" fill="#FA9700"/>
<path d="M233.709 -8.51625C242.395 -8.61685 250.274 -4.56473 255.498 -0.554626C259.927 2.93858 261.511 6.80689 261.586 10.8099C249.154 5.0944 234.336 -5.82477 233.704 -8.51336L233.709 -8.51625Z" fill="#FEB8AC"/>
<path d="M344.486 33.4361C362.968 22.766 334.678 2.43906 320.791 -7.17395C306.899 -16.7841 282.717 -17.8389 269.196 -10.0328C255.676 -2.22669 257.502 11.7352 274.148 19.7557C290.793 27.7763 326.005 44.1063 344.486 33.4361Z" fill="#FFF3DB"/>
<path d="M272.382 -11.6211C286.256 -17.6279 307.926 -16.07 320.781 -7.17404C327.718 -2.37756 338.241 5.09674 344.738 12.7035C328.375 7.04822 311.138 9.47171 302.684 5.71749C294.407 2.04304 278.967 -7.48965 272.377 -11.624L272.382 -11.6211Z" fill="#FA9700"/>
<path d="M266.44 -8.19053C273.596 -4.38275 290.112 4.52857 296.476 9.30704C302.979 14.1884 298.781 24.1402 308.576 33.5872C295.401 29.8358 282.46 23.7574 274.148 19.7557C258.734 12.3309 256.041 -0.177571 266.445 -8.18768L266.44 -8.19053Z" fill="#FA9700"/>
<path d="M294.176 16.3082C291.689 17.7446 287.062 17.3163 283.632 15.3358C283.192 15.0818 283.197 14.6682 283.642 14.411C284.088 14.1538 284.804 14.1512 285.244 14.4052C287.695 15.8206 291.058 16.2707 292.59 15.3864C294.122 14.502 293.337 12.5635 290.885 11.1481C290.445 10.8941 290.45 10.4805 290.895 10.2233C291.341 9.96608 292.057 9.96346 292.497 10.2175C295.927 12.198 296.664 14.8718 294.181 16.3053L294.176 16.3082Z" fill="#593A42"/>
<path d="M316.782 3.25656C314.3 4.69004 309.668 4.26467 306.238 2.28414C305.798 2.03015 305.803 1.61659 306.248 1.35938C306.694 1.10216 307.41 1.09955 307.85 1.35353C310.302 2.76901 313.664 3.21911 315.196 2.33475C316.728 1.45039 315.943 -0.488094 313.491 -1.90357C313.051 -2.15756 313.056 -2.57112 313.501 -2.82834C313.947 -3.08555 314.663 -3.08816 315.103 -2.83418C318.534 -0.853648 319.27 1.82019 316.787 3.25367L316.782 3.25656Z" fill="#593A42"/>
<path d="M342.114 22.0724C345.87 24.2413 345.036 28.239 340.26 30.9962C335.485 33.7533 328.556 34.2381 324.799 32.0692C321.042 29.9003 321.872 25.9055 326.657 23.1425C331.443 20.3796 338.357 19.9035 342.114 22.0724Z" fill="#593A42"/>
<path d="M324.86 25.5382C323.493 26.8642 323.396 28.467 324.47 29.8502C325.22 30.821 327.717 29.9848 326.971 29.0226C326.304 28.1692 326.524 27.1461 327.349 26.3447C328.294 25.4223 325.816 24.6157 324.865 25.5353L324.86 25.5382Z" fill="#936170"/>
<path d="M326.276 30.2458C325.642 30.4578 325.288 31.0047 325.722 31.3764C325.939 31.5595 326.131 31.7454 326.347 31.9284C326.786 32.2973 327.57 32.4725 328.299 32.2343C328.928 32.0253 329.292 31.4725 328.848 31.1066C328.632 30.9236 328.435 30.7347 328.223 30.5546C327.784 30.1857 327 30.0105 326.271 30.2487L326.276 30.2458Z" fill="#936170"/>
<path d="M369.979 61.1307C362.499 54.7308 333.779 27.763 367.928 30.8491C383.015 32.1726 397.273 36.9366 409.74 41.3654C420.443 45.1229 430.742 49.4046 440.767 53.7878L395.395 79.9834C386.478 73.8932 377.781 67.7045 369.979 61.1307Z" fill="#FFF3DB"/>
<path d="M382.672 -59.7102C370.393 -70.3428 360.609 -82.1993 383.67 -91.3584C406.731 -100.517 424.365 -88.3765 423.79 -88.0441C423.214 -87.7118 465.729 -86.8761 461.297 -76.8803C456.865 -66.8846 431.216 -63.9767 431.216 -63.9767C431.216 -63.9767 422.93 -61.7323 415.868 -61.3763C415.868 -61.3763 440.971 -38.9873 501.083 -34.8701C534.378 -24.2767 564.189 -17.4816 564.189 -17.4816L496.571 21.5575C450.125 -3.26367 395.331 -48.7487 382.672 -59.7159L382.672 -59.7102Z" fill="#FFF3DB"/>
<path d="M525.254 5.00855L496.581 21.5629C486.557 16.2033 476.136 9.88024 465.839 3.14892C469.947 1.40511 474.892 -0.0919161 480.215 -1.46395C498.001 -5.91695 515.712 -3.87076 525.264 5.00852L525.254 5.00855Z" fill="#593A42"/>
<path d="M510.817 13.344C510.817 13.344 460.214 -19.7386 418.788 -25.5063C377.362 -31.2683 368.222 -15.1183 371.69 -4.78097C371.69 -4.78097 367.994 5.28674 357.69 10.9445C357.69 10.9445 380.654 18.8444 392.616 2.53764C392.616 2.53764 411.151 -6.69679 434.865 3.12162C458.573 12.9429 460.304 42.5077 460.304 42.5077L510.817 13.344Z" fill="#FF740C"/>
<path d="M371.496 -4.29199C387.503 -6.1711 392.616 2.5377 392.616 2.5377C380.659 18.8473 357.69 10.9445 357.69 10.9445C366.653 6.02688 370.613 -2.22394 371.491 -4.29485L371.496 -4.29199Z" fill="#FFF3DB"/>
<path d="M452.076 0.330706C478.438 5.44691 493.809 13.0844 501.962 18.4566L460.299 42.5107C460.299 42.5107 458.574 12.943 434.86 3.12459C411.151 -6.6967 392.611 2.54063 392.611 2.54063C392.611 2.54063 407.577 -8.30337 452.071 0.333599L452.076 0.330706Z" fill="#ED4714"/>
<path d="M355.391 13.3623C359.618 13.4387 363.149 12.1249 363.277 10.4244C363.405 8.72951 360.078 7.29425 355.851 7.21777C351.624 7.14129 348.097 8.45795 347.969 10.1528C347.841 11.8476 351.168 13.2829 355.396 13.3594L355.391 13.3623Z" fill="#593A42"/>
<path d="M380.86 -0.920142C385.202 0.0375683 389.317 2.61581 385.965 5.28159C385.408 5.72301 384.125 5.31128 384.687 4.86697C387.421 2.68878 384.001 0.685242 380.478 -0.0945302C379.605 -0.286629 379.982 -1.11509 380.86 -0.920142Z" fill="#593A42"/>
<path d="M351.524 8.06643C352.246 7.94605 352.949 7.86595 353.705 7.86894C355.615 7.87346 355.452 9.57704 353.552 9.57249C353.059 9.57141 352.596 9.65638 352.127 9.73276C350.294 10.0381 349.7 8.37175 351.529 8.06928L351.524 8.06643Z" fill="#936170"/>
<path d="M356.522 7.71515C357.104 7.6757 357.586 7.6883 358.158 7.75227C358.948 7.84416 359.339 8.40561 359.116 8.81422C358.852 9.2919 358.049 9.47001 357.265 9.38097C357.215 9.38115 357.17 9.37844 357.12 9.37862C356.324 9.43322 355.55 9.21779 355.377 8.73021C355.232 8.31145 355.725 7.76975 356.522 7.71515Z" fill="#936170"/>
<path d="M313.406 55.4843C313.406 55.4843 309.017 52.4418 306.239 49.0574C308.78 49.12 311.337 49.0532 313.852 48.8171L315.473 53.3832L313.401 55.4872L313.406 55.4843Z" fill="#EFDCBD"/>
<path d="M306.243 49.0544C305.409 48.0409 304.724 46.998 304.347 45.9943C304.212 45.6329 304.141 45.2627 304.115 44.8837C303.239 44.4877 302.429 43.9508 302.252 43.3684C302.102 43.0043 302.275 42.5958 303.026 42.596C303.608 42.5967 304.028 42.8853 304.358 43.1339C304.364 43.1195 304.374 43.108 304.369 43.0937C303.553 42.2293 302.259 41.3553 302.2 40.3504C302.21 39.9167 302.606 39.6252 303.37 39.7775C304.299 39.955 304.903 40.6392 305.376 41.0797C305.326 40.5888 304.946 38.0458 305.534 37.4951C306.072 37.0078 306.59 37.3879 306.844 37.7775C307.118 38.1843 307.173 38.6379 307.163 39.0888C309.781 36.6927 313.54 35.0536 316.307 35.7557C322.002 37.1938 312.519 45.0943 312.519 45.0943L313.842 48.8114C311.327 49.0474 308.765 49.1113 306.229 49.0516L306.243 49.0544Z" fill="#FFF3DB"/>
<path d="M295.107 58.5087C295.107 58.5087 292.065 53.3247 294.432 52.9743C296.793 52.6268 298.376 56.6215 298.376 56.6215C298.376 56.6215 300.275 50.3482 303.04 50.9154C305.809 51.4854 303.55 55.6664 303.55 55.6664C303.55 55.6664 315.843 50.9376 319.246 49.989C322.648 49.0404 329.289 48.5911 326.74 52.4314L332.289 57.1784C332.289 57.1784 342.553 49.2205 350.048 52.0047C357.539 54.786 358.827 58.4429 357.64 59.1278C356.454 59.8128 353.803 59.3112 353.803 59.3112C353.803 59.3112 359.743 62.0121 358.068 63.6637C356.957 64.7619 352.868 63.4013 352.868 63.4013C352.868 63.4013 358.067 67.4488 355.465 68.8425C354.079 69.5856 349.852 67.6941 349.852 67.6941C349.852 67.6941 351.002 72.6065 347.896 73.2123C344.796 73.8209 336.539 72.8287 336.539 72.8287C336.539 72.8287 352.574 76.6012 356.966 79.8188C361.353 83.0394 359.424 84.3244 355.882 84.3373C355.882 84.3373 365.567 88.8997 369.485 94.9306L333.113 115.93C333.113 115.93 298.813 69.3937 294.741 64.2967C294.741 64.2967 284.524 60.1555 286.4 58.2791C288.246 56.4315 295.097 58.503 295.097 58.503L295.107 58.5087Z" fill="#FFF3DB"/>
<path d="M358.215 95.302C354.621 92.742 342.977 87.3136 352.334 84.9476C348.587 83.7551 339.696 81.2115 346.961 79.0943C343.485 78.5441 330.409 76.6591 330.718 73.924C330.918 71.9762 336.792 72.5176 341.683 73.2953C338.969 73.1271 336.539 72.8344 336.539 72.8344C336.539 72.8344 352.575 76.607 356.966 79.8246C361.353 83.0451 359.424 84.3301 355.882 84.3431C355.882 84.3431 365.567 88.9055 369.485 94.9364L351.424 105.364C350.049 104.211 349.083 102.931 348.81 101.525C348.148 98.3915 352.507 95.0758 358.215 95.2963L358.215 95.302Z" fill="#EFDCBD"/>
<path d="M315.338 37.0801C316.965 38.8116 311.147 44.631 311.147 44.631L313.378 53.896C313.378 53.896 306.667 45.7789 306.295 44.8067C305.923 43.8345 313.287 34.9136 315.328 37.0801L315.338 37.0801Z" fill="#FEB8AC"/>
<path d="M275.472 61.9403C275.917 61.7175 276.568 61.7754 277.1 61.8338C277.085 61.8252 277.08 61.8109 277.065 61.7966C275.457 61.4636 273.474 61.3071 272.283 60.5792C271.799 60.2535 271.764 59.8861 272.517 59.7081C273.424 59.4866 274.67 59.7663 275.529 59.9154C274.931 59.5701 271.747 57.8184 271.564 57.1873C271.416 56.6221 272.251 56.7052 272.886 56.8982C273.56 57.0967 274.119 57.4135 274.627 57.7534C273.882 54.9762 274.876 52.3247 277.781 51.7943C283.757 50.7013 285.554 60.1833 285.554 60.1833L297.242 65.2266L298.067 67.5814C298.067 67.5814 286.563 66.5751 280.344 63.9672C279.829 63.7508 279.354 63.4999 278.905 63.2287C277.785 63.2643 276.558 63.1741 275.756 62.8094C275.231 62.593 274.897 62.2267 275.462 61.9403L275.472 61.9403Z" fill="#FFF3DB"/>
<path d="M278.543 53.1529C281.753 53.8218 283.965 60.3644 283.965 60.3644L296.311 65.7816C296.311 65.7816 281.868 62.9165 280.477 62.3328C279.085 61.7492 274.508 52.309 278.543 53.1472L278.543 53.1529Z" fill="#FEB8AC"/>
<path d="M317.3 60.4897C317.47 60.8997 317.346 61.2735 316.945 61.5966C315.806 62.5169 313.005 62.5702 308.607 61.7362C308.393 61.6939 308.28 61.565 308.356 61.4413C308.422 61.3176 308.657 61.2507 308.87 61.2929C313.884 62.2396 315.674 61.8281 316.291 61.3291C316.557 61.1184 316.629 60.8827 316.513 60.6074C316.184 59.816 314.393 58.9323 313.222 58.5977C313.059 58.5494 312.965 58.4435 313.011 58.3371C313.052 58.2336 313.212 58.1583 313.401 58.1519C314.685 58.1242 316.012 58.2142 317.467 58.4242C317.711 58.4607 317.964 58.4971 318.222 58.5364C319.528 58.7355 321.008 58.9656 322.229 58.7572C322.652 58.6839 322.942 58.5507 323.084 58.3607C323.25 58.1332 323.204 57.8347 322.938 57.537C322.408 56.8956 321.238 56.5553 320.103 56.2234L319.855 56.1497C319.696 56.1043 319.608 56.0012 319.644 55.8948C319.68 55.7942 319.825 55.7161 320.009 55.7068C320.312 55.6914 320.616 55.6759 320.925 55.6633C322.353 55.5978 323.831 55.5321 325.068 55.1887C325.657 55.0142 325.978 54.8178 326.01 54.6109C326.058 54.3034 325.505 53.8804 324.51 53.4562C324.332 53.3821 324.294 53.2329 324.429 53.1262C324.555 53.0195 324.819 52.9984 325.002 53.0753C325.888 53.4483 326.921 54.0275 326.83 54.6452C326.771 55.0274 326.305 55.3479 325.437 55.6095C324.204 55.95 322.835 56.044 321.492 56.1064C322.374 56.3961 323.211 56.7577 323.682 57.3189C324.055 57.7368 324.115 58.1817 323.843 58.5388C323.747 58.6684 323.611 58.7809 323.441 58.8792C323.191 59.0237 322.861 59.134 322.468 59.2015C321.022 59.4423 319.428 59.1982 318.018 58.9851C317.765 58.943 317.517 58.9094 317.283 58.8729C316.439 58.7496 315.644 58.6721 314.878 58.6347C315.943 59.1104 317.049 59.8014 317.33 60.4838L317.3 60.4897Z" fill="#EFDCBD"/>
<path d="M318.762 67.8535C318.643 67.7448 318.7 67.6039 318.89 67.5286C319.079 67.4589 319.333 67.4896 319.451 67.5983C320.032 68.1246 320.868 68.5667 322.008 68.9474C324.213 69.6601 325.115 69.5793 325.475 69.3885C326.171 68.9867 324.977 68.0434 324.587 67.7605C324.035 67.3317 323.357 67.0269 322.573 66.8575C322.399 66.8265 322.265 66.8012 322.171 66.7814C321.972 66.7362 321.869 66.6073 321.935 66.4893C322.006 66.3685 322.226 66.3045 322.434 66.3382C322.588 66.3635 322.732 66.3888 322.881 66.4227C323.755 66.5689 325.131 66.6816 325.775 66.4868C325.945 66.4345 326.04 66.3681 326.081 66.2761C326.132 66.1668 326.098 66.0779 325.985 65.9892C325.393 65.5434 323.037 65.3625 321.962 65.3664C321.734 65.3672 321.556 65.2645 321.557 65.1324C321.558 65.0002 321.739 64.8962 321.968 64.8954C322.007 64.8952 325.588 64.9166 326.629 65.6968C326.901 65.8997 326.983 66.1378 326.871 66.3852C326.774 66.6067 326.523 66.7856 326.149 66.899C325.72 67.0269 325.167 67.0663 324.6 67.0569C324.822 67.1853 325.035 67.3195 325.232 67.4738C326.569 68.454 326.859 69.2513 326.033 69.7282C324.782 70.3932 322.388 69.618 321.6 69.3595C320.347 68.9362 319.417 68.4456 318.767 67.8564L318.762 67.8535Z" fill="#EFDCBD"/>
<path d="M332.693 88.8386C332.898 88.789 333.136 88.8456 333.224 88.9659C333.592 89.4901 335.037 90.1511 336.426 90.4389C337.245 90.6054 337.942 90.6258 338.371 90.4922C338.89 90.318 339.147 90.0557 339.17 89.6938C339.209 88.878 337.958 87.7683 336.858 87.3588C336.67 87.2905 336.622 87.1471 336.737 87.0404C336.853 86.928 337.107 86.8955 337.29 86.9609C339.258 87.6401 341.402 88.0745 341.782 87.8721C341.862 87.8259 341.894 87.619 341.501 87.1437C340.219 85.6521 337.417 84.034 334.828 83.2911C334.655 83.2429 334.567 83.1283 334.622 83.0219C334.673 82.9126 334.848 82.8401 335.042 82.848C336.663 82.9053 339.44 82.7746 339.598 81.9354C339.651 81.6768 339.519 81.4561 339.188 81.2592C338.096 80.594 335.168 80.4008 333.909 80.4485C333.685 80.4579 333.493 80.3581 333.484 80.2317C333.471 80.1026 333.646 79.9899 333.87 79.9805C335.149 79.9328 338.42 80.1046 339.779 80.9354C340.268 81.2351 340.483 81.5904 340.399 81.9813C340.214 82.9842 338.087 83.2533 336.509 83.3137C338.838 84.1954 341.061 85.5888 342.22 86.9343C342.406 87.1576 342.976 87.839 342.345 88.2032C342.335 88.209 342.325 88.2147 342.315 88.2205C341.68 88.5588 340.23 88.3172 338.965 87.9973C339.556 88.5178 339.992 89.1394 339.966 89.7081C339.947 90.0958 339.715 90.4183 339.279 90.6698C339.124 90.7594 338.949 90.8375 338.749 90.9072C338.09 91.1106 337.185 91.1024 336.133 90.888C334.5 90.5522 332.917 89.8056 332.456 89.1582C332.368 89.0379 332.479 88.8997 332.683 88.8501L332.693 88.8386Z" fill="#EFDCBD"/>
<path d="M312.218 82.1501C312.235 82.0208 312.42 81.9196 312.649 81.9246C312.867 81.9295 313.045 82.038 313.029 82.1673C312.928 83.2589 313.909 84.496 315.707 84.679C316.354 84.7168 316.897 84.6086 317.233 84.3805C317.594 84.1322 317.687 83.7642 317.488 83.3658C317.439 83.2626 317.515 83.1561 317.67 83.0952C317.834 83.04 318.038 83.0536 318.167 83.1278C319.561 83.9326 321.077 84.5014 321.525 84.3964C321.755 84.3324 321.815 84.2575 321.836 84.2057C321.999 83.8261 321.047 83.103 320.643 82.7943L320.534 82.7085C320.396 82.6056 320.427 82.4619 320.617 82.3808C320.792 82.3027 321.051 82.3247 321.184 82.4247L321.292 82.5105C321.85 82.9363 322.886 83.7252 322.625 84.3206C322.585 84.4184 322.494 84.5393 322.299 84.6521C322.188 84.7156 322.038 84.7794 321.849 84.8317C320.921 85.0476 319.401 84.407 318.397 83.9024C318.359 84.1983 318.172 84.4661 317.856 84.6826C317.33 85.0378 316.542 85.2015 315.583 85.1446C313.238 84.9062 312.1 83.4228 312.218 82.1501Z" fill="#EFDCBD"/>
<path d="M310.552 73.5409C310.466 73.7049 310.32 73.8462 310.124 73.9589C309.929 74.0716 309.68 74.1587 309.386 74.2143C308.937 74.3021 308.455 74.2723 307.974 74.1218C306.849 73.7784 305.879 72.8256 305.636 72.2981C305.578 72.172 305.704 72.0423 305.923 72.007C306.142 71.9717 306.365 72.0427 306.418 72.1718C306.598 72.5531 307.419 73.4202 308.366 73.7068C308.649 73.7948 308.902 73.814 309.142 73.7672C309.481 73.697 309.686 73.5843 309.777 73.4059C310.072 72.8362 309.178 71.7941 308.591 71.3741C308.453 71.277 308.479 71.1361 308.659 71.0436C308.834 70.9597 309.088 70.9788 309.231 71.0788C309.823 71.5074 310.974 72.7209 310.552 73.5352L310.552 73.5409Z" fill="#EFDCBD"/>
<path d="M305.034 71.3899C305.034 71.3899 304.999 71.4101 304.984 71.4188C304.564 71.6616 303.966 71.7442 303.32 71.6374C301.608 71.3134 300.866 69.0703 300.875 68.2719C300.881 68.1427 301.062 68.0386 301.286 68.0349C301.509 68.037 301.687 68.1397 301.691 68.2689C301.682 69.1248 302.492 70.9856 303.564 71.1885C303.927 71.2475 304.23 71.209 304.436 71.0733C304.756 70.8711 304.835 70.5004 304.62 70.168C304.541 70.0477 304.647 69.9123 304.857 69.8656C305.066 69.8189 305.299 69.8784 305.378 69.9987C305.706 70.4943 305.565 71.0548 305.034 71.3899Z" fill="#EFDCBD"/>
<path d="M351.479 89.4422C351.703 89.4213 351.906 89.5095 351.945 89.6358C352.198 90.6026 354.44 93.383 356.606 93.1827C356.9 93.15 357.08 93.0632 357.191 92.9077C357.419 92.5651 357.197 91.9744 356.828 91.5765C356.724 91.4821 356.636 91.4021 356.562 91.3363C356.444 91.2333 356.475 91.0896 356.655 91.0143C356.835 90.939 357.078 90.9582 357.217 91.0553C357.315 91.1239 357.414 91.2154 357.512 91.3127C357.621 91.4099 357.729 91.5187 357.862 91.6359C358.728 92.4541 360.535 94.162 361.576 94.0519C362.084 93.9869 362.22 93.8285 362.276 93.7163C362.713 92.8589 360.263 90.803 359.408 90.3093C359.25 90.2179 359.252 90.0686 359.412 89.9761C359.572 89.8836 359.831 89.8827 359.989 89.974C360.651 90.3564 363.66 92.6659 363.055 93.8427C362.989 93.9664 362.874 94.1075 362.658 94.2318C362.443 94.3561 362.153 94.4548 361.73 94.5109C360.545 94.6358 359.335 93.8218 358.098 92.7321C358.082 92.8499 358.041 92.9649 357.965 93.0715C357.758 93.3853 357.343 93.5849 356.755 93.6445C353.882 93.9106 351.454 90.792 351.163 89.7104C351.129 89.5813 351.28 89.4601 351.504 89.4392L351.479 89.4422Z" fill="#FFF3DB"/>
<path d="M326.391 97.4829L326.338 97.3884C326.264 97.2652 326.385 97.1326 326.599 97.0887C326.809 97.0478 327.042 97.113 327.11 97.2333L327.164 97.3279C327.813 98.4772 329.174 100.87 331.36 101.155C331.668 101.188 332.061 101.201 332.211 101.086C332.497 100.864 332.197 100.135 331.514 99.3941C331.405 99.2796 331.487 99.1358 331.681 99.0747C331.881 99.0108 332.124 99.053 332.232 99.1675C332.572 99.531 333.622 100.774 332.865 101.359C332.83 101.385 332.79 101.414 332.75 101.437C332.414 101.631 331.891 101.693 331.181 101.612C328.543 101.269 327.084 98.7096 326.391 97.4772L326.391 97.4829Z" fill="#EFDCBD"/>
<path d="M333.973 98.2994C334.167 98.2326 334.416 98.2662 334.529 98.3778C336.345 100.137 338.203 101.285 339.055 101.164C339.473 101.105 339.777 100.645 339.889 99.8947C339.911 99.7682 340.106 99.667 340.334 99.6776C340.558 99.6854 340.726 99.7997 340.7 99.929C340.587 100.662 340.313 101.151 339.858 101.414C339.678 101.518 339.473 101.585 339.234 101.62C337.41 101.874 334.844 99.6058 333.825 98.6187C333.712 98.5071 333.773 98.3633 333.968 98.2966L333.973 98.2994Z" fill="#EFDCBD"/>
<path d="M336.177 62.348C339.581 63.5331 344.929 62.0547 348.116 59.0449C351.302 56.0351 351.121 52.6298 347.716 51.4447C344.312 50.2596 338.964 51.7379 335.777 54.7477C332.591 57.7575 332.772 61.1628 336.177 62.348Z" fill="#593A42"/>
<path d="M341.156 52.3101C342.829 51.721 345.133 51.6293 346.787 52.2494C347.699 52.5907 346.651 53.3613 345.749 53.0257C344.768 52.6617 343.136 52.7423 342.157 53.0905C341.233 53.4183 340.217 52.6467 341.151 52.313L341.156 52.3101Z" fill="#936170"/>
<path d="M347.99 52.7818C348.566 52.9291 348.986 53.1889 349.186 53.5356C349.528 54.126 347.952 54.4936 347.61 53.8975C347.547 53.7857 347.507 53.7284 347.324 53.6803C346.332 53.4254 347.003 52.5241 347.99 52.7818Z" fill="#936170"/>
<path d="M328.049 57.7712C328.983 58.3105 330.25 58.4466 330.886 58.0796C331.522 57.7126 331.281 56.9783 330.352 56.4417C329.423 55.9052 328.146 55.7634 327.51 56.1305C326.874 56.4975 327.115 57.2318 328.049 57.7712Z" fill="#593A42"/>
<path d="M320.681 62.0254C321.615 62.5648 322.882 62.7008 323.518 62.3338C324.153 61.9668 323.913 61.2325 322.983 60.696C322.054 60.1594 320.777 60.0176 320.142 60.3847C319.506 60.7517 319.747 61.486 320.681 62.0254Z" fill="#593A42"/>
</g>
</g>
<defs>
<clipPath id="clip0_57_177">
<rect width="763" height="217" fill="white"/>
</clipPath>
<clipPath id="clip1_57_177">
<rect width="410.76" height="208.589" rx="32.2116" transform="matrix(0.866025 -0.5 0.866025 0.5 152.48 11.6412)" fill="white"/>
</clipPath>
</defs>
</svg>
